<svg id="Layer_1" data-name="Layer 1" xmlns="http://www.w3.org/2000/svg" viewBox="0 0 271 48.63"><defs><style>.cls-1{fill:#f4f3f3;}.cls-2{fill:#fff;}</style></defs><title>Artboard 1</title><path class="cls-1" d="M2.2,37.38,12.85,8.62c.57-1.55,1.44-2.31,2.69-2.31s2.16.75,2.72,2.31L28.77,37.38H25.15L22,28.54H8.84L5.67,37.38ZM21,25.83,15.43,10.2,9.82,25.83Z"/><path class="cls-1" d="M46.84,37a29,29,0,0,1-6.15.69c-7.92,0-9.38-5.57-9.38-12.33,0-7.7,1.74-11.81,10.23-11.81a19.75,19.75,0,0,1,5.26.67l-.26,2.45a25.49,25.49,0,0,0-3.92-.39c-7.35,0-8.07,2.57-8.07,9.08,0,6.11.54,9.55,8,9.55a21.67,21.67,0,0,0,4-.5Z"/><path class="cls-1" d="M65.2,37a29,29,0,0,1-6.15.69c-7.92,0-9.38-5.57-9.38-12.33,0-7.7,1.74-11.81,10.22-11.81a19.77,19.77,0,0,1,5.27.67l-.26,2.45A25.62,25.62,0,0,0,61,16.29c-7.36,0-8.07,2.57-8.07,9.08,0,6.11.54,9.55,8,9.55a21.67,21.67,0,0,0,4-.5Z"/><path class="cls-1" d="M68,25.62c0-8.53,2.56-12.06,10.28-12.06,8,0,10.11,4.15,10.11,10.58,0,.66,0,1.53-.07,2.23-2.69.45-8.26,1-11.55,1.11l-5.57.22C71.55,32.52,73,35,78.93,35a60.75,60.75,0,0,0,8.3-.66l.29,2.59a58.51,58.51,0,0,1-9.85.78C70,37.7,68,32.59,68,25.62ZM77.29,25c2.06-.1,5.6-.37,7.76-.65,0-.48,0-1.16,0-1.65,0-4-1.74-6.52-6.87-6.52-5.92,0-7.16,3-7.16,9.11Z"/><path class="cls-1" d="M95.54,19.55c0,3.14,2.42,3.48,5.8,4.52,4.72,1.47,7.39,2.67,7.39,7,0,5.19-3.85,6.62-9,6.62a34.93,34.93,0,0,1-7.48-.78l.32-2.52a39.43,39.43,0,0,0,6,.55c2.76,0,6.83,0,6.83-3.68,0-3-2.09-3.51-5.76-4.61s-7.36-2-7.36-6.81,3.39-6.29,8.13-6.29a35.72,35.72,0,0,1,7.65.77l-.31,2.49a33.72,33.72,0,0,0-5.89-.57C99.23,16.25,95.54,16.31,95.54,19.55Z"/><path class="cls-1" d="M115.37,19.55c0,3.14,2.41,3.48,5.79,4.52,4.73,1.47,7.39,2.67,7.39,7,0,5.19-3.85,6.62-9,6.62a35.09,35.09,0,0,1-7.49-.78l.32-2.52a39.56,39.56,0,0,0,6,.55c2.75,0,6.82,0,6.82-3.68,0-3-2.09-3.51-5.75-4.61s-7.37-2-7.37-6.81,3.39-6.29,8.13-6.29a35.81,35.81,0,0,1,7.66.77l-.32,2.49a33.72,33.72,0,0,0-5.89-.57C119.05,16.25,115.37,16.31,115.37,19.55Z"/><path class="cls-2" d="M151.9,11.23a39.16,39.16,0,0,0-6-.5c-8.27,0-8.33,4.78-8.33,11.27s.06,11.27,8.33,11.27a38,38,0,0,0,6-.5l.48,4.08a33.17,33.17,0,0,1-7.73.85C134.53,37.7,132,32.92,132,22s2.5-15.69,12.61-15.69a33.79,33.79,0,0,1,7.73.84Z"/><path class="cls-2" d="M165.62,37.7c-7.7,0-10.47-3.28-10.47-12.08s2.77-12.06,10.47-12.06S176.08,17,176.08,25.62,173.31,37.7,165.62,37.7Zm0-4c4.25,0,5.43-1.86,5.43-8.09s-1.18-8.08-5.43-8.08-5.42,1.6-5.42,8.08S161.37,33.71,165.62,33.71Z"/><path class="cls-2" d="M200.38,37.38h-5V22.85c0-3.75-.66-5.33-5.48-5.33a10.47,10.47,0,0,0-4.29.79,28.93,28.93,0,0,0-.15,3.15V37.38h-5V19.93c0-1.54.07-2.89.2-4.32a24.16,24.16,0,0,1,10.61-2c8.28,0,9.12,3.86,9.12,8.75Z"/><path class="cls-2" d="M217.8,37.35a22.47,22.47,0,0,1-3.55.35c-4.76,0-6.78-2.08-6.78-6.42V17.59h-4V13.87h4V8.05l5-.82v6.64h4.88v3.72H212.5V30.86c0,2.27,1,3,3.14,3,.61,0,1.19,0,1.78-.07Z"/><path class="cls-2" d="M226.18,37.38h-5V19.93c0-1.54.07-2.89.2-4.32a19.77,19.77,0,0,1,9.24-2,21.74,21.74,0,0,1,2.19.09l-.4,4a16,16,0,0,0-1.79-.09,10.6,10.6,0,0,0-4.29.79,29,29,0,0,0-.15,3.16Z"/><path class="cls-2" d="M245.36,37.7c-7.69,0-10.47-3.28-10.47-12.08s2.78-12.06,10.47-12.06S255.83,17,255.83,25.62,253.05,37.7,245.36,37.7Zm0-4c4.25,0,5.44-1.86,5.44-8.09s-1.19-8.08-5.44-8.08S240,19.14,240,25.62,241.11,33.71,245.36,33.71Z"/><path class="cls-2" d="M260,4.79h5V31.07a7.94,7.94,0,0,0,1.72,5.28l-4.37,2.07A9.93,9.93,0,0,1,260,31.3Z"/></svg>